<?xml version="1.0" encoding="utf-8"?>
<!-- Generator: Adobe Illustrator 18.0.0, SVG Export Plug-In . SVG Version: 6.00 Build 0)  -->
<!DOCTYPE svg PUBLIC "-//W3C//DTD SVG 1.1//EN" "http://www.w3.org/Graphics/SVG/1.1/DTD/svg11.dtd">
<svg version="1.1" id="Layer_1" xmlns="http://www.w3.org/2000/svg" xmlns:xlink="http://www.w3.org/1999/xlink" x="0px" y="0px"
	 viewBox="0 0 500 500" enable-background="new 0 0 500 500" xml:space="preserve">
<g>
	<g>
		<g>
			<path fill="#928F8F" d="M415.4,235.7c-3.9,0-7.7-0.4-11.5-1.1c-2.8,0.4-5.8,0.7-8.9,0.8l-83.5,0c-2,0-3.6-1.6-3.6-3.6
				c0-2,1.6-3.6,3.6-3.6h83.3c2.9-0.1,5.8-0.4,8.6-0.8c0.4-0.1,0.8-0.1,1.3,0c3.5,0.7,7.1,1.1,10.7,1.1c29.7,0,53.9-24.2,53.9-53.9
				c0-29.7-24.2-53.9-53.9-53.9c-2.8,0-5.5,0.2-8.2,0.6c-1,0.2-2.1-0.2-2.9-0.9c-0.8-0.7-1.2-1.7-1.2-2.8
				c0-30.3-24.2-54.5-53.9-54.5c-9.6,0-19,2.5-27.2,7.3c-7.7,3.1-14.4,7.5-20.3,13.3c-1.2,1.1-3,1.3-4.4,0.5
				c-6.5-4-14.1-6.1-21.8-6.1c-17.8,0-33.6,11.3-39.5,28.1c-0.6,1.9-2.7,2.9-4.6,2.2c-1.9-0.6-2.9-2.7-2.2-4.6
				c6.8-19.6,25.4-32.9,46.2-32.9c8.1,0,16,2,23.1,5.8c6.1-5.5,12.9-9.8,20.2-12.7c8.8-5.2,19.5-8.1,30.3-8.1
				c32.6,0,59.2,25.6,61,57.7c1.7-0.2,3.5-0.2,5.2-0.2c33.7,0,61.1,27.4,61.1,61.1S449.1,235.7,415.4,235.7z"/>
		</g>
		<g>
			<path fill="#928F8F" d="M97.8,266.3c-33.7,0-61.1-27.4-61.1-61.1s27.4-61.1,61.1-61.1c1.8,0,3.5,0.1,5.3,0.2
				c2-32.4,28.6-57.7,61-57.7c10.8,0,21.5,2.9,30.8,8.3c6.9,2.7,13.6,7,19.7,12.5c7.1-3.8,15-5.8,23.1-5.8c27,0,48.9,22,48.9,48.9
				c0,2.8-0.2,5.7-0.7,8.5c24,14.3,32.6,35.7,32.6,50c1.8,51.3-50.8,56.9-51.3,56.9l-148.8,0c-3.2-0.1-6.2-0.4-9-0.8
				C105.5,265.9,101.6,266.3,97.8,266.3z M97.8,151.3c-29.7,0-53.9,24.2-53.9,53.9c0,29.7,24.2,53.9,53.9,53.9
				c3.6,0,7.2-0.4,10.7-1.1c0.4-0.1,0.8-0.1,1.3,0c2.7,0.4,5.7,0.7,8.7,0.8l148.3,0c1.6-0.2,46-5,44.5-49.7
				c0-10.5-6.6-31.6-31.2-45.2c-1.4-0.8-2.1-2.4-1.8-3.9c0.7-3.1,1.1-6.3,1.1-9.5c0-23-18.7-41.8-41.8-41.8
				c-7.7,0-15.2,2.1-21.8,6.1c-1.4,0.9-3.2,0.7-4.4-0.5c-5.9-5.8-12.6-10.2-19.8-13.1c-8.7-5-18.1-7.6-27.7-7.6
				c-29.7,0-53.9,24.2-53.9,53.9c0,1-0.5,2.4-1.2,3c-0.8,0.7-1.7,1.3-2.9,1.2C103.3,151.5,100.5,151.3,97.8,151.3z"/>
		</g>
	</g>
	<g>
		<path fill="#455963" d="M166.3,404.2c11.5,0,20.8,9.3,20.8,20.8c0,11.5-9.3,20.8-20.8,20.8c-11.5,0-20.8-9.3-20.8-20.8
			C145.5,413.5,154.9,404.2,166.3,404.2 M166.3,393.4c-17.4,0-31.5,14.1-31.5,31.5c0,17.4,14.1,31.5,31.5,31.5s31.5-14.1,31.5-31.5
			C197.9,407.6,183.8,393.4,166.3,393.4L166.3,393.4z"/>
	</g>
	<g>
		<path fill="#455963" d="M183.5,405.9c-0.8,0-1.6-0.3-2.3-0.8c-1.5-1.3-1.7-3.5-0.4-5l4.4-5.2c18.5-21.8,23.5-27.6,23.5-47.6v-54.3
			c0-2,1.6-3.6,3.6-3.6c2,0,3.6,1.6,3.6,3.6v54.3c0,22.5-6.4,30-25.2,52.2l-4.4,5.2C185.5,405.4,184.5,405.9,183.5,405.9z"/>
	</g>
	<g>
		<path fill="#455963" d="M375.4,406.1c11.5,0,20.8,9.3,20.8,20.8c0,11.5-9.3,20.8-20.8,20.8s-20.8-9.3-20.8-20.8
			C354.6,415.4,364,406.1,375.4,406.1 M375.4,395.4c-17.4,0-31.5,14.1-31.5,31.5c0,17.4,14.1,31.5,31.5,31.5s31.5-14.1,31.5-31.5
			C407,409.5,392.9,395.4,375.4,395.4L375.4,395.4z"/>
	</g>
	<g>
		<path fill="#455963" d="M361.4,405.9c-1,0-2-0.4-2.7-1.3l-4.4-5.2c-18.9-22.2-25.2-29.7-25.2-52.2v-54.3c0-2,1.6-3.6,3.6-3.6
			c2,0,3.6,1.6,3.6,3.6v54.3c0,19.9,5,25.8,23.5,47.6l4.4,5.2c1.3,1.5,1.1,3.8-0.4,5C363,405.6,362.2,405.9,361.4,405.9z"/>
	</g>
	<g>
		<path fill="#455963" d="M272.8,414.5c11.5,0,20.8,9.3,20.8,20.8s-9.3,20.8-20.8,20.8s-20.8-9.3-20.8-20.8S261.3,414.5,272.8,414.5
			 M272.8,403.8c-17.4,0-31.5,14.1-31.5,31.5c0,17.4,14.1,31.5,31.5,31.5c17.4,0,31.5-14.1,31.5-31.5
			C304.3,417.9,290.2,403.8,272.8,403.8L272.8,403.8z"/>
	</g>
	<g>
		<path fill="#455963" d="M272.8,407.4c-2,0-3.6-1.6-3.6-3.6V292.9c0-2,1.6-3.6,3.6-3.6s3.6,1.6,3.6,3.6v110.9
			C276.3,405.8,274.7,407.4,272.8,407.4z"/>
	</g>
</g>
</svg>
