<?xml version="1.0" encoding="utf-8"?>
<!-- Generator: Adobe Illustrator 24.0.1, SVG Export Plug-In . SVG Version: 6.00 Build 0)  -->
<svg version="1.1" id="Layer_1" xmlns="http://www.w3.org/2000/svg" xmlns:xlink="http://www.w3.org/1999/xlink" x="0px" y="0px"
	 viewBox="0 0 244 244" style="enable-background:new 0 0 244 244;" xml:space="preserve">
<style type="text/css">
	.st0{fill:#FFFFFF;}
	.st1{fill:#BC6481;}
	.st2{fill:#A4CFEA;}
	.st3{fill:#DEE15C;}
	.st4{fill:#FFB96E;}
	.st5{fill:#C3DE77;}
	.st6{fill:#E4649C;}
	.st7{fill:#D0389E;}
	.st8{fill:#E02E76;}
	.st9{fill:#43CDCA;}
	.st10{fill:#B2BC77;}
	.st11{fill:#00C16B;}
	.st12{fill:#00B09C;}
	.st13{fill:#A35F41;}
	.st14{fill:#AB56C9;}
	.st15{fill:#A54758;}
	.st16{fill:#F4F0E6;}
	.st17{enable-background:new    ;}
	.st18{fill:#34679A;}
</style>
<g>
	<circle id="Ellipse_244" class="st0" cx="122" cy="122" r="122"/>
	<path id="Path_154" class="st1" d="M57.6,33.6C75.1,21,96.2,14.3,117.7,14.4c7.1,0,14.1,0.7,21,2.1c13.8,2.7,26.9,8,38.7,15.6
		c5.9,3.7,11.4,8,16.4,12.8c2.5,2.4,4.9,4.9,7.2,7.5c2.3,2.6,4.4,5.4,6.4,8.2c2,2.8,3.9,5.7,5.6,8.8c1.7,3,3.3,6.1,4.8,9.2
		c11.7,25.6,12.9,54.8,3.3,81.3c-2.4,6.6-5.4,12.9-9,18.9c-1.8,3-3.7,5.9-5.8,8.8c-2.1,2.8-4.3,5.6-6.6,8.2
		c-4.7,5.2-9.9,10-15.5,14.3c-5.7,4.3-11.7,7.9-18.1,11c-6.4,3.1-13.1,5.5-20,7.1c-13.9,3.4-28.3,3.9-42.3,1.5
		c-10.5-1.8-20.7-5.3-30.1-10.2c-3.1-1.6-6.2-3.4-9.1-5.4c-5.9-3.9-11.4-8.3-16.4-13.2c-2.5-2.5-4.9-5-7.1-7.7
		c-2.3-2.7-4.4-5.5-6.4-8.3c-16.1-23.2-23-51.7-19.3-79.7c0.9-7,2.5-13.9,4.8-20.6c2.3-6.7,5.2-13.2,8.8-19.4
		C36.1,52.7,45.9,42,57.6,33.6"/>
	<path id="Path_155" class="st2" d="M57.2,33c-5.8,4.2-11.3,8.9-16.3,14.1c-5,5.2-9.5,10.9-13.5,16.9c-4,6.1-7.4,12.5-10.1,19.2
		c-2.8,6.8-4.9,13.8-6.3,20.9c-1.4,7.2-2.1,14.6-2,21.9c0.2,14.8,3.5,29.4,9.7,42.9c3.1,6.7,6.9,13.1,11.3,19c2.2,3,4.5,5.8,7,8.5
		c2.5,2.7,5.1,5.3,7.8,7.7c5.5,4.9,11.4,9.2,17.7,12.9c3.2,1.8,6.4,3.5,9.7,5.1c3.3,1.5,6.7,2.9,10.1,4.1
		c13.7,4.8,28.2,7.1,42.8,6.6c21.9-0.7,43.2-7.6,61.3-20c6-4.1,11.7-8.9,16.8-14.1c2.6-2.6,5-5.4,7.3-8.2c2.3-2.9,4.4-5.9,6.4-9
		c4-6.2,7.3-12.8,10-19.7c5.3-13.8,7.9-28.6,7.5-43.4c-0.2-7.4-1.1-14.8-2.7-22c-2.5-10.9-6.6-21.3-12.2-30.9
		c-1.9-3.2-3.9-6.3-6.1-9.3c-2.2-3-4.5-5.9-7-8.7c-2.4-2.8-5.1-5.4-7.8-7.9c-5.4-5-11.4-9.5-17.7-13.3
		c-12.7-7.6-26.8-12.5-41.5-14.5c-7.2-0.9-14.6-1.2-21.9-0.7c-7.3,0.5-14.4,1.6-21.5,3.5c-7,1.8-13.8,4.3-20.3,7.4
		C69.3,25.2,63,28.8,57.2,33"/>
	<path id="Path_156" class="st3" d="M64.1,42.5c5.2-3.7,10.9-6.9,16.8-9.5c5.9-2.6,12-4.5,18.3-5.8c6.3-1.3,12.6-1.9,19-1.9
		c6.4,0,12.7,0.6,18.9,1.9c12.4,2.5,24.2,7.2,34.8,14c5.3,3.4,10.2,7.2,14.7,11.6c2.3,2.2,4.4,4.4,6.5,6.8c2,2.4,4,4.8,5.8,7.4
		c1.8,2.5,3.5,5.2,5.1,7.9c1.6,2.7,3,5.5,4.3,8.3c7.9,17.2,10.5,36.3,7.7,55c-1,6.2-2.5,12.3-4.7,18.2c-2.1,5.9-4.8,11.6-8.1,17
		c-1.6,2.7-3.4,5.3-5.2,7.9c-1.9,2.5-3.9,5-6,7.4c-4.2,4.7-8.9,9-14,12.8c-26,19.7-60.5,24.5-90.8,12.4c-3-1.2-5.9-2.5-8.7-4
		c-2.8-1.5-5.6-3.1-8.2-4.8c-5.3-3.5-10.2-7.5-14.8-11.9c-2.3-2.2-4.4-4.5-6.4-7c-2-2.4-3.9-4.9-5.7-7.5c-3.6-5.2-6.7-10.6-9.3-16.4
		c-2.6-5.7-4.6-11.7-6.1-17.8c-1.5-6.1-2.4-12.4-2.7-18.6c-0.3-6.3-0.1-12.6,0.7-18.9c0.8-6.3,2.3-12.5,4.3-18.5
		c2-6.1,4.7-11.9,7.9-17.4C44.8,59.7,53.6,50,64.1,42.5"/>
	<path id="Path_157" class="st4" d="M63.7,42c-5.3,3.8-10.2,8-14.7,12.7c-4.5,4.7-8.6,9.8-12.1,15.2c-3.6,5.5-6.6,11.3-9.1,17.3
		c-2.5,6.1-4.4,12.4-5.7,18.8c-1.3,6.5-1.9,13.1-1.8,19.7c0.2,13.3,3.1,26.5,8.7,38.6c2.8,6,6.2,11.8,10.1,17.1
		c2,2.7,4.1,5.2,6.3,7.7c2.2,2.4,4.6,4.8,7.1,7c4.9,4.4,10.3,8.3,16,11.6c2.8,1.7,5.7,3.2,8.7,4.6c3,1.4,6,2.6,9.1,3.7
		c12.3,4.4,25.4,6.4,38.5,6c13.1-0.4,26-3.3,38-8.5c12.1-5.3,23.1-12.8,32.3-22.2c2.3-2.4,4.5-4.8,6.5-7.4
		c6.2-7.8,11.2-16.5,14.8-25.8c2.4-6.2,4.2-12.6,5.3-19.2c1.1-6.6,1.6-13.2,1.5-19.9c-0.2-6.7-1-13.3-2.5-19.8
		c-2.2-9.8-5.9-19.2-11-27.8c-1.7-2.9-3.5-5.7-5.5-8.4c-2-2.7-4.1-5.3-6.3-7.8c-2.2-2.5-4.5-4.9-7-7.1c-4.9-4.5-10.2-8.5-16-12
		c-11.4-6.9-24.1-11.3-37.3-13c-6.5-0.9-13.1-1.1-19.7-0.6c-6.5,0.4-13,1.5-19.3,3.1C86.1,28.8,74.2,34.4,63.7,42"/>
	<path id="Path_158" class="st5" d="M69.8,50.5c4.7-3.4,9.8-6.2,15.1-8.6c5.3-2.3,10.8-4.1,16.5-5.3c5.6-1.2,11.4-1.7,17.1-1.7
		c5.7,0,11.4,0.6,17,1.7c5.6,1.1,11,2.7,16.3,4.9c5.2,2.1,10.3,4.7,15,7.8c4.8,3,9.2,6.5,13.3,10.4c2,1.9,4,4,5.8,6.1
		c1.8,2.1,3.6,4.3,5.2,6.6s3.2,4.7,4.6,7.1s2.7,4.9,3.9,7.5c2.3,5.1,4.2,10.4,5.5,15.9c4,16.6,3,33.9-2.8,49.9
		c-1.9,5.3-4.4,10.5-7.3,15.3c-1.5,2.4-3,4.8-4.7,7.1c-1.7,2.3-3.5,4.5-5.4,6.6c-3.8,4.2-8,8.1-12.6,11.5c-4.6,3.4-9.5,6.4-14.7,8.9
		c-15.7,7.5-33.4,9.9-50.5,7c-5.7-1-11.2-2.5-16.6-4.7c-2.7-1.1-5.3-2.3-7.8-3.6c-2.5-1.3-5-2.8-7.4-4.3c-4.8-3.1-9.2-6.7-13.3-10.7
		c-2-2-4-4.1-5.8-6.3c-1.8-2.2-3.5-4.4-5.2-6.7c-3.2-4.7-6-9.6-8.3-14.7c-2.3-5.2-4.2-10.5-5.5-16c-2.7-11.1-3.3-22.5-1.8-33.8
		c0.8-5.7,2-11.3,3.9-16.7c1.8-5.5,4.2-10.7,7.1-15.7c2.9-5,6.4-9.7,10.3-13.9C60.8,57.8,65.1,53.9,69.8,50.5"/>
	<path id="Path_159" class="st6" d="M69.5,50.1c-4.7,3.4-9.2,7.2-13.2,11.4c-4.1,4.2-7.7,8.8-10.9,13.7c-3.2,4.9-6,10.1-8.2,15.6
		c-2.3,5.5-4,11.2-5.1,17c-2.3,11.7-2.1,23.8,0.5,35.5c3.3,14.6,10.4,28.2,20.5,39.2c6,6.6,13,12.2,20.7,16.7
		c2.5,1.5,5.2,2.9,7.9,4.1c2.7,1.2,5.4,2.4,8.2,3.3c5.6,2,11.3,3.4,17.1,4.3c5.8,0.9,11.7,1.3,17.6,1.1c5.9-0.2,11.7-0.9,17.4-2.2
		c5.7-1.3,11.4-3.1,16.8-5.5c5.4-2.4,10.6-5.2,15.5-8.6c4.9-3.4,9.4-7.2,13.6-11.4c2.1-2.1,4-4.4,5.9-6.7c1.8-2.3,3.6-4.8,5.2-7.3
		c3.2-5,5.9-10.4,8.1-15.9c2.2-5.6,3.7-11.4,4.8-17.3c1-5.9,1.5-11.9,1.3-17.9c-0.3-12-3-23.9-8-34.9c-1.2-2.7-2.6-5.4-4.1-8
		c-1.5-2.6-3.2-5.1-4.9-7.5c-1.8-2.4-3.6-4.8-5.6-7c-2-2.3-4.1-4.4-6.3-6.4c-4.4-4.1-9.2-7.7-14.4-10.8c-5.1-3.1-10.6-5.6-16.2-7.6
		c-5.6-2-11.4-3.3-17.3-4.1c-5.9-0.8-11.8-1-17.7-0.6c-11.7,0.8-23.2,3.8-33.9,8.8C79.3,43.7,74.3,46.7,69.5,50.1"/>
	<path id="Path_160" class="st7" d="M75.1,57.8c4.2-3,8.8-5.6,13.6-7.7c4.8-2.1,9.7-3.7,14.8-4.7c5.1-1.1,10.2-1.6,15.4-1.6
		c5.1,0,10.3,0.5,15.3,1.5c5,1,9.9,2.5,14.7,4.4c4.7,1.9,9.3,4.2,13.5,7c4.3,2.7,8.3,5.9,12,9.4c1.8,1.7,3.6,3.6,5.2,5.5
		c1.6,1.9,3.2,3.9,4.7,6c1.5,2.1,2.8,4.2,4.1,6.4c1.3,2.2,2.4,4.4,3.5,6.7c8.6,18.7,9.4,40,2.4,59.3c-1.7,4.8-3.9,9.4-6.5,13.8
		c-1.3,2.2-2.7,4.3-4.2,6.4c-1.5,2.1-3.1,4-4.8,5.9c-3.4,3.8-7.2,7.3-11.3,10.4c-4.1,3.1-8.5,5.8-13.2,8c-19,9-40.8,9.8-60.3,2.1
		c-2.4-0.9-4.8-2-7-3.2c-2.3-1.2-4.5-2.5-6.7-3.9c-4.3-2.8-8.3-6.1-12-9.7c-1.8-1.8-3.6-3.7-5.2-5.6c-1.6-2-3.2-4-4.7-6.1
		c-2.9-4.2-5.4-8.6-7.5-13.3c-4.2-9.3-6.6-19.3-7.1-29.5c-0.3-5.1-0.1-10.2,0.6-15.3c0.7-5.1,1.8-10.1,3.5-15
		C52.7,79.9,62.3,66.9,75.1,57.8"/>
	<path id="Path_161" class="st8" d="M74.8,57.4C66.2,63.5,58.9,71.2,53.1,80c-2.9,4.4-5.4,9.1-7.4,14c-2,4.9-3.6,10-4.6,15.3
		c-3.1,15.9-1.2,32.5,5.6,47.2c2.3,4.9,5,9.5,8.2,13.9c3.2,4.3,6.8,8.3,10.8,11.9c4,3.6,8.3,6.7,12.9,9.4c2.3,1.3,4.7,2.6,7.1,3.7
		c2.4,1.1,4.9,2.1,7.4,3c10,3.5,20.6,5.2,31.2,4.9c10.6-0.3,21.1-2.7,30.8-6.9c4.9-2.1,9.5-4.7,13.9-7.7c4.4-3,8.5-6.5,12.2-10.3
		c1.9-1.9,3.6-3.9,5.3-6s3.2-4.3,4.7-6.5c2.9-4.5,5.4-9.3,7.3-14.4c3.9-10.1,5.7-20.8,5.5-31.7c-0.1-5.4-0.8-10.8-2-16.1
		c-1.2-5.3-2.9-10.4-5.2-15.4c-1.1-2.5-2.4-4.9-3.7-7.2c-1.4-2.3-2.8-4.6-4.4-6.8c-1.6-2.2-3.3-4.3-5.1-6.3c-1.8-2-3.7-4-5.7-5.8
		c-4-3.7-8.3-6.9-12.9-9.7c-4.6-2.8-9.5-5.1-14.6-6.8c-5.1-1.8-10.3-3-15.6-3.7c-5.3-0.7-10.6-0.9-15.9-0.5
		c-5.3,0.4-10.5,1.2-15.7,2.5c-5.1,1.3-10.1,3.1-14.8,5.4C83.6,51.6,79.1,54.3,74.8,57.4"/>
	<path id="Path_162" class="st9" d="M79.8,64.3c11.5-8.2,25.3-12.7,39.5-12.6c4.6,0,9.3,0.5,13.8,1.4c9,1.8,17.6,5.3,25.4,10.2
		c3.8,2.5,7.5,5.3,10.8,8.4c1.6,1.6,3.2,3.2,4.7,4.9c1.5,1.7,2.9,3.5,4.2,5.4s2.6,3.8,3.7,5.7c1.1,2,2.2,4,3.1,6.1
		c7.7,16.8,8.5,36,2.2,53.3c-1.6,4.3-3.5,8.5-5.9,12.4c-1.2,2-2.5,3.9-3.8,5.7c-1.4,1.9-2.8,3.6-4.4,5.4c-3.1,3.4-6.5,6.6-10.2,9.4
		c-3.7,2.8-7.7,5.2-11.9,7.2c-4.2,2-8.6,3.6-13.1,4.7c-13.7,3.4-28.1,2.4-41.2-2.8c-2.2-0.9-4.3-1.8-6.3-2.9c-2.1-1.1-4.1-2.2-6-3.5
		c-3.9-2.5-7.5-5.4-10.8-8.7c-1.6-1.6-3.2-3.3-4.7-5.1s-2.9-3.6-4.2-5.5c-2.6-3.8-4.9-7.8-6.8-11.9c-5.7-12.6-7.7-26.6-5.9-40.3
		c0.6-4.6,1.7-9.1,3.1-13.5c3-8.9,7.8-17.1,14.1-24C72.5,70.1,76,67,79.8,64.3"/>
	<path id="Path_163" class="st10" d="M79.5,63.9c-3.8,2.8-7.4,5.9-10.7,9.3C62.2,80.1,57,88.1,53.3,96.9c-1.8,4.4-3.2,9-4.1,13.7
		c-0.9,4.7-1.4,9.5-1.3,14.4c0.1,4.8,0.6,9.7,1.7,14.4c1.1,4.7,2.6,9.3,4.7,13.7c2,4.4,4.5,8.6,7.4,12.5c1.4,1.9,3,3.8,4.6,5.6
		c1.6,1.8,3.3,3.5,5.1,5.1c3.6,3.2,7.5,6,11.6,8.5c2.1,1.2,4.2,2.3,6.4,3.3c2.2,1,4.4,1.9,6.6,2.7c4.5,1.6,9.1,2.8,13.8,3.5
		c9.4,1.5,19,1.2,28.3-0.9c9.3-2.1,18.2-5.9,26.1-11.4c4-2.7,7.7-5.8,11-9.2c1.7-1.7,3.3-3.5,4.8-5.4c1.5-1.9,2.9-3.9,4.2-5.9
		c2.6-4.1,4.8-8.4,6.5-12.9c5.3-13.7,6.4-28.6,3.1-42.9c-1.1-4.8-2.6-9.4-4.7-13.8c-1-2.2-2.1-4.4-3.3-6.5c-1.2-2.1-2.5-4.1-4-6.1
		c-2.9-3.9-6.1-7.6-9.7-10.9c-10.7-10-24.3-16.3-38.8-18.2c-9.5-1.2-19.2-0.6-28.5,1.8c-4.6,1.2-9.1,2.8-13.3,4.8
		C87.4,58.7,83.4,61.2,79.5,63.9"/>
	<path id="Path_164" class="st11" d="M84,70.1c6.9-4.9,14.7-8.4,23-10.1c4.1-0.8,8.3-1.3,12.5-1.3c4.2,0,8.3,0.4,12.4,1.2
		c8.1,1.6,15.9,4.7,22.8,9.2c3.5,2.2,6.7,4.8,9.7,7.6c1.5,1.4,2.9,2.9,4.2,4.4c1.3,1.6,2.6,3.2,3.8,4.8s2.3,3.4,3.3,5.2
		s2,3.6,2.8,5.5c5.2,11.3,6.9,23.8,5,36.1c-0.6,4.1-1.7,8.1-3.1,12c-1.4,3.9-3.2,7.6-5.3,11.2c-1.1,1.8-2.2,3.5-3.4,5.2
		c-1.2,1.7-2.5,3.3-3.9,4.8c-2.8,3.1-5.9,5.9-9.2,8.4c-3.3,2.5-6.9,4.7-10.7,6.5c-15.4,7.3-33.1,7.9-48.9,1.7
		c-1.9-0.8-3.8-1.6-5.7-2.6c-1.8-1-3.6-2-5.4-3.2c-3.5-2.3-6.7-4.9-9.7-7.8c-1.5-1.5-2.9-3-4.2-4.6c-1.3-1.6-2.6-3.2-3.8-4.9
		c-2.4-3.4-4.4-7-6.1-10.7c-1.7-3.8-3-7.7-4-11.7c-1-4-1.6-8.1-1.8-12.2c-0.2-4.1-0.1-8.3,0.5-12.4c0.6-4.1,1.5-8.2,2.8-12.2
		c2.7-8,7-15.4,12.7-21.6C77.4,75.4,80.6,72.6,84,70.1"/>
	<path id="Path_165" class="st12" d="M83.8,69.8c-6.9,5-12.9,11.2-17.6,18.3c-2.3,3.6-4.4,7.4-6,11.4c-1.6,4-2.9,8.1-3.7,12.4
		c-0.8,4.3-1.2,8.6-1.2,12.9c0.1,4.4,0.6,8.7,1.5,12.9c1,4.3,2.4,8.4,4.2,12.4c1.8,4,4.1,7.7,6.6,11.2c1.3,1.7,2.7,3.4,4.1,5
		c1.5,1.6,3,3.1,4.6,4.6c3.2,2.9,6.7,5.4,10.5,7.6c1.9,1.1,3.8,2.1,5.7,3c2,0.9,4,1.7,6,2.4c12.2,4.3,25.3,5.1,38,2.3
		c4.2-0.9,8.3-2.3,12.2-4c3.9-1.7,7.7-3.8,11.3-6.2c3.6-2.4,6.9-5.2,9.9-8.3c3-3.1,5.7-6.5,8.1-10.2c2.4-3.7,4.3-7.6,5.9-11.6
		c1.6-4.1,2.7-8.3,3.5-12.6c0.7-4.3,1.1-8.7,1-13c-0.1-4.4-0.7-8.7-1.6-13c-1-4.3-2.4-8.4-4.2-12.4c-0.9-2-1.9-3.9-3-5.8
		c-1.1-1.9-2.3-3.7-3.6-5.5c-1.3-1.8-2.6-3.5-4.1-5.1c-1.5-1.6-3-3.2-4.6-4.7c-3.2-3-6.7-5.6-10.5-7.9c-3.7-2.3-7.7-4.1-11.8-5.5
		c-4.1-1.4-8.3-2.4-12.7-3c-4.3-0.6-8.6-0.7-12.9-0.4c-4.3,0.3-8.5,1-12.7,2.1c-4.1,1.1-8.2,2.5-12,4.4
		C90.9,65.1,87.3,67.3,83.8,69.8"/>
	<path id="Path_166" class="st13" d="M87.8,75.4c3.1-2.2,6.4-4.1,9.9-5.6c3.5-1.5,7.1-2.7,10.8-3.4c3.7-0.8,7.5-1.1,11.2-1.1
		c3.8,0,7.5,0.4,11.2,1.1c3.7,0.7,7.2,1.8,10.7,3.2c3.4,1.4,6.7,3.1,9.9,5.1c3.1,2,6,4.3,8.7,6.8c1.3,1.3,2.6,2.6,3.8,4
		s2.4,2.8,3.4,4.3c1.1,1.5,2.1,3.1,3,4.7c0.9,1.6,1.8,3.2,2.5,4.9c7.8,17.2,6.7,37.1-3,53.2c-1,1.6-2,3.2-3.1,4.7s-2.3,3-3.5,4.3
		c-5,5.6-11.1,10.2-17.9,13.4c-10.3,4.9-21.9,6.5-33.1,4.6c-3.7-0.6-7.4-1.7-10.9-3.1c-1.8-0.7-3.5-1.5-5.1-2.4
		c-1.7-0.9-3.3-1.8-4.9-2.8c-3.1-2.1-6.1-4.4-8.7-7c-1.3-1.3-2.6-2.7-3.8-4.1s-2.3-2.9-3.4-4.4c-4.2-6.1-7.3-13-9.1-20.2
		c-0.9-3.6-1.4-7.3-1.6-11c-0.2-3.7-0.1-7.5,0.4-11.2c0.5-3.7,1.3-7.4,2.5-10.9c1.2-3.6,2.8-7,4.7-10.3c1.9-3.3,4.2-6.3,6.7-9.1
		C81.9,80.1,84.7,77.6,87.8,75.4"/>
	<path id="Path_167" class="st14" d="M87.6,75.1C81.4,79.6,76,85.2,71.8,91.6c-2.1,3.2-3.9,6.7-5.4,10.2c-1.5,3.6-2.6,7.3-3.3,11.1
		c-0.7,3.8-1.1,7.7-1,11.6c0,3.9,0.5,7.8,1.4,11.6c1.7,7.7,5.1,14.9,9.8,21.2c4.7,6.3,10.6,11.6,17.3,15.5c1.7,1,3.4,1.9,5.1,2.7
		c1.8,0.8,3.5,1.5,5.4,2.2c3.6,1.3,7.4,2.2,11.2,2.8c3.8,0.6,7.7,0.8,11.5,0.7c3.9-0.1,7.7-0.6,11.4-1.5c3.8-0.8,7.4-2,11-3.6
		c3.6-1.5,6.9-3.4,10.1-5.6c3.2-2.2,6.2-4.7,8.9-7.5c1.4-1.4,2.6-2.9,3.9-4.4c1.2-1.5,2.4-3.1,3.4-4.8c2.1-3.3,3.9-6.8,5.3-10.5
		c1.4-3.7,2.5-7.5,3.1-11.3c1.4-7.8,1.2-15.8-0.6-23.5c-0.9-3.8-2.1-7.6-3.8-11.2c-0.8-1.8-1.7-3.5-2.7-5.3c-1-1.7-2.1-3.4-3.2-4.9
		c-1.2-1.6-2.4-3.1-3.7-4.6s-2.7-2.9-4.1-4.2c-2.9-2.7-6.1-5-9.4-7.1c-6.7-4-14.2-6.7-22-7.7c-3.9-0.5-7.7-0.6-11.6-0.4
		C112,64,104.5,66,97.5,69.3C94,70.9,90.7,72.9,87.6,75.1"/>
	<path id="Path_168" class="st15" d="M91.3,80.1c2.8-2,5.8-3.7,8.9-5.1c3.1-1.4,6.4-2.4,9.7-3.1c3.3-0.7,6.7-1,10.1-1
		c3.4,0,6.7,0.3,10.1,1c3.3,0.6,6.5,1.6,9.6,2.9c3.1,1.3,6.1,2.8,8.9,4.6c2.8,1.8,5.4,3.8,7.8,6.1c1.2,1.1,2.4,2.3,3.4,3.6
		c1.1,1.3,2.1,2.6,3.1,3.9c1,1.4,1.9,2.7,2.7,4.2c0.8,1.4,1.6,2.9,2.3,4.4c1.4,3,2.5,6.2,3.2,9.4c2.3,9.8,1.8,20-1.7,29.5
		c-1.1,3.1-2.6,6.2-4.3,9c-0.9,1.4-1.8,2.8-2.8,4.2c-1,1.4-2.1,2.6-3.2,3.9c-2.3,2.5-4.7,4.8-7.4,6.8c-2.7,2-5.6,3.8-8.7,5.3
		c-12.4,5.9-26.8,6.4-39.6,1.3c-1.6-0.6-3.1-1.3-4.6-2.1c-1.5-0.8-3-1.6-4.4-2.6c-2.8-1.8-5.4-4-7.8-6.3c-1.2-1.2-2.3-2.4-3.4-3.7
		c-1.1-1.3-2.1-2.6-3.1-4c-1.9-2.7-3.6-5.7-4.9-8.7c-1.4-3-2.5-6.2-3.2-9.5c-1.6-6.5-1.9-13.3-1.1-20c0.4-3.3,1.2-6.6,2.3-9.8
		c1.1-3.2,2.5-6.3,4.2-9.3c1.7-2.9,3.8-5.7,6.1-8.2C85.9,84.4,88.5,82.2,91.3,80.1"/>
	<path id="Path_169" class="st16" d="M91.1,79.9c-2.8,2-5.4,4.3-7.8,6.8c-4.8,5-8.6,10.9-11.3,17.3c-1.3,3.2-2.3,6.6-3,10
		c-0.7,3.4-1,7-0.9,10.5c0,3.5,0.5,7,1.2,10.5c0.8,3.4,1.9,6.8,3.4,10c2.2,4.8,5.2,9.2,8.7,13.1c1.2,1.3,2.4,2.5,3.7,3.7
		c2.6,2.3,5.5,4.4,8.5,6.2c1.5,0.9,3.1,1.7,4.6,2.4s3.2,1.4,4.8,2c3.3,1.2,6.7,2,10.1,2.5c6.9,1.1,13.9,0.8,20.7-0.7
		c3.4-0.8,6.7-1.8,9.9-3.2c3.2-1.4,6.3-3.1,9.1-5.1c2.9-2,5.6-4.2,8-6.7c1.2-1.3,2.4-2.6,3.5-4c1.1-1.4,2.1-2.8,3.1-4.3
		c1.9-3,3.5-6.1,4.8-9.4c1.3-3.3,2.2-6.7,2.8-10.2c0.6-3.5,0.9-7,0.8-10.6c-0.1-3.5-0.5-7.1-1.3-10.5c-0.8-3.5-1.9-6.8-3.4-10.1
		c-0.7-1.6-1.6-3.2-2.4-4.7c-0.9-1.5-1.9-3-2.9-4.5c-1-1.4-2.2-2.8-3.3-4.1c-1.2-1.3-2.4-2.6-3.7-3.8c-2.6-2.4-5.4-4.5-8.5-6.4
		c-3-1.8-6.2-3.3-9.6-4.5c-3.3-1.2-6.8-2-10.2-2.4c-3.5-0.5-7-0.6-10.5-0.3c-3.5,0.2-6.9,0.8-10.3,1.7c-3.3,0.9-6.6,2.1-9.7,3.5
		C96.8,76.1,93.9,77.9,91.1,79.9"/>
	<g class="st17">
		<path class="st18" d="M100.2,123c0.2,0.1,0.2,0.2,0.1,0.4c-0.6,1-0.9,1.5-0.9,1.5c-0.5,0.7-1.1,1.3-1.9,1.8
			c-0.8,0.5-1.5,0.9-2.3,1.1c-0.8,0.2-1.5,0.2-2.2-0.1c-0.7-0.3-1.2-0.8-1.5-1.6c-0.2-0.4-0.3-0.9-0.3-1.3c0-0.1,0-0.2,0-0.3
			c0-0.1,0-0.1,0-0.1c0,0,0-0.1,0-0.2s0-0.3,0.1-0.7c0.1-0.3,0.1-0.8,0.2-1.4c0.1-0.4,0.1-0.8,0.2-1.2c0.1-0.4,0.1-0.7,0.2-0.8
			s0.1-0.3,0.1-0.5c0-0.2,0-0.3,0-0.4c0-0.1-0.1-0.2-0.1-0.5c-0.2-0.5-0.5-0.6-1-0.4c-0.1,0.1-0.2,0.1-0.4,0.2s-0.2,0.2-0.3,0.3
			c-0.1,0.1-0.2,0.2-0.3,0.3s-0.2,0.2-0.3,0.3s-0.2,0.2-0.3,0.3c-0.1,0.1-0.2,0.3-0.3,0.4s-0.1,0.3-0.2,0.4c0,0.1-0.1,0.3-0.1,0.5
			c0,0.2-0.1,0.4-0.1,0.5c-0.1,0.3-0.2,1-0.4,2s-0.4,2-0.5,2.8c-0.1,0.8-0.2,1.2-0.2,1.3c0,0,0,0,0,0.1c0,0.1-0.1,0.2-0.2,0.2
			c-0.1,0-0.7,0-1.5,0c-1,0-1.9,0-2.7,0c-0.1,0-0.2,0-0.2,0c0,0,0-0.1,0-0.2c1-4.8,1.8-8.7,2.2-11.8c0.1-0.5,0.1-0.9,0.2-0.9
			c0-0.1,0.1-0.1,0.2-0.1c0,0,0.1,0,0.1,0c0.3,0,0.9,0,2.1,0c1.1,0,1.8,0,2.1,0h0c0.1,0,0.2,0,0.2,0.1c0,0,0,0.2-0.1,0.4
			c-0.1,0.3-0.1,0.5-0.1,0.7c0,0,0,0.1,0,0.2c0.2-0.1,0.5-0.2,0.9-0.5c0.4-0.3,0.9-0.5,1.3-0.7c0.5-0.2,1-0.3,1.7-0.2
			c0.5,0,1,0.2,1.5,0.5c0.4,0.3,0.7,0.8,0.9,1.2c0.2,0.6,0.3,1.3,0.2,2.1c-0.1,0.8-0.2,1.4-0.3,2s-0.3,1.2-0.3,1.8
			c-0.1,0.7,0,1.2,0.2,1.5c0.1,0.2,0.4,0.3,0.6,0.2c0.2-0.1,0.5-0.2,0.7-0.4c0.2-0.2,0.5-0.4,0.6-0.5c0.2-0.2,0.3-0.4,0.5-0.6
			c0.1-0.2,0.3-0.3,0.4-0.5c0.1-0.1,0.2-0.2,0.2-0.2c0.1,0,0.2,0,0.3,0.1s0.3,0.2,0.5,0.3C99.8,122.8,100,122.9,100.2,123z
			 M85.4,125.1c0,0,0.1,0,0.1,0.1c0.1,0.1,0.2,0.1,0.3,0c0,0,0.1-0.1,0.1-0.1c-0.1-0.1-0.1-0.1-0.2-0.2c0,0-0.1,0-0.1,0.1
			S85.5,125,85.4,125.1C85.4,125.1,85.4,125.1,85.4,125.1z M85.5,122.3L85.5,122.3C85.5,122.3,85.5,122.4,85.5,122.3L85.5,122.3
			L85.5,122.3z M85.8,123.2C85.7,123.1,85.7,123.1,85.8,123.2c-0.1-0.1-0.1,0-0.2,0c0,0,0.1,0,0.1,0.1
			C85.7,123.2,85.7,123.2,85.8,123.2C85.8,123.2,85.8,123.2,85.8,123.2z M85.9,120.4l0.1-0.2l-0.1-0.1l-0.1,0.1L85.9,120.4z
			 M86.6,119C86.6,119,86.6,118.9,86.6,119c0-0.1,0-0.1,0-0.1c0,0,0,0-0.1,0C86.5,118.8,86.5,118.9,86.6,119
			C86.5,118.9,86.5,118.9,86.6,119z M87.6,121.1C87.6,121.1,87.6,121.1,87.6,121.1C87.6,121.1,87.6,121.1,87.6,121.1L87.6,121.1z
			 M87.7,119C87.7,119,87.7,119,87.7,119C87.7,119,87.7,119,87.7,119L87.7,119z M87.8,117.1c0,0,0.1,0,0.1-0.1c0,0-0.1-0.1-0.2-0.2
			C87.7,117,87.7,117.1,87.8,117.1C87.7,117.1,87.8,117.1,87.8,117.1z M88.1,118.3C88.1,118.3,88,118.3,88.1,118.3L88.1,118.3
			L88.1,118.3C88,118.3,88.1,118.3,88.1,118.3z M88.5,118.5C88.6,118.5,88.6,118.5,88.5,118.5c0.1-0.1,0.2-0.2,0.2-0.2
			c0,0,0-0.1,0-0.1c0,0-0.2,0.1-0.5,0.2C88.4,118.4,88.5,118.5,88.5,118.5z M92.4,123.2C92.5,123.2,92.5,123.3,92.4,123.2
			c0.1,0.1,0.1,0,0.2,0c0,0,0,0,0,0C92.5,123.1,92.5,123.1,92.4,123.2C92.4,123.1,92.4,123.2,92.4,123.2z M92.6,125.4L92.6,125.4
			L92.6,125.4L92.6,125.4C92.6,125.4,92.6,125.4,92.6,125.4z M92.9,117.1L92.9,117.1c0.1,0.1,0.1,0,0.2,0c0,0,0,0-0.1-0.1
			c0,0-0.1-0.1-0.1-0.1C93,117.1,92.9,117.1,92.9,117.1z M93.9,123.4v-0.1c-0.1-0.1-0.2-0.1-0.3-0.1c0,0-0.1,0-0.2,0.1
			c-0.1,0-0.2,0.1-0.2,0.1c0,0-0.1,0.1-0.1,0.2l0.1,0.2l0.2-0.1C93.5,123.5,93.7,123.4,93.9,123.4z M93.5,117.9
			c-0.1-0.1-0.2-0.1-0.2-0.1c0,0,0,0-0.1,0c0.1,0.1,0.1,0.2,0.1,0.2S93.4,117.9,93.5,117.9z M93.6,118.9c-0.1,0-0.2,0-0.2,0l0.1,0.1
			L93.6,118.9z M93.7,118.6l-0.1-0.1l-0.2,0.1l0,0.1C93.5,118.6,93.6,118.6,93.7,118.6L93.7,118.6z M94,122.4c0,0,0.1-0.1,0.1-0.1
			l-0.1-0.1C94,122.3,94,122.4,94,122.4z M94.3,120.1l0.1,0.1l0.1-0.1C94.4,120.1,94.4,120.1,94.3,120.1z M94.5,121.4
			c0,0,0.1,0,0.1,0C94.6,121.4,94.6,121.4,94.5,121.4z"/>
		<path class="st18" d="M111.1,122.2c0.3,0.2,0.6,0.4,0.9,0.6c0.4,0.2,0.5,0.4,0.4,0.5c-0.7,1.1-1.1,1.6-1.1,1.7
			c-0.5,0.6-1.2,1.2-2,1.7c-0.8,0.5-1.7,0.9-2.5,1.1c-0.9,0.3-1.8,0.4-2.7,0.3c-0.9,0-1.7-0.2-2.5-0.5c-0.7-0.3-1.4-0.8-1.9-1.6
			c-0.5-0.7-0.8-1.6-0.9-2.7c0-0.1,0-0.2,0-0.3c-0.1-0.5-0.1-1.1,0-1.8c0.1-0.7,0.3-1.5,0.6-2.3c0.4-1.1,1-2,1.8-2.7
			c0.8-0.7,1.6-1.1,2.4-1.3s1.6-0.2,2.5-0.1c0.8,0.2,1.5,0.5,2.1,1c0.8,0.7,1.3,1.7,1.5,2.8c0.1,1.1-0.2,2.2-1,3.3
			c-0.4,0.5-1,0.9-1.6,1.2c-0.6,0.3-1.2,0.5-1.7,0.6c-0.5,0.1-0.8,0.2-0.8,0.2c0.1,0.1,0.1,0.2,0.1,0.2c1,0.7,2.1,0.9,3.2,0.6
			c0.5-0.1,0.9-0.3,1.3-0.5c0.4-0.2,0.7-0.5,0.9-0.7c0.2-0.2,0.4-0.5,0.5-0.7c0.1-0.2,0.3-0.4,0.4-0.5
			C111,122.2,111,122.2,111.1,122.2z M99.7,123.4C99.7,123.4,99.7,123.4,99.7,123.4L99.7,123.4C99.7,123.4,99.7,123.4,99.7,123.4z
			 M100.3,121.7l0.2,0.1l0.2-0.1c-0.1-0.1-0.1-0.1-0.2-0.2C100.4,121.7,100.4,121.7,100.3,121.7z M101.1,123.5
			c0.3-0.1,0.6-0.3,0.7-0.4c-0.1-0.1-0.2-0.1-0.3-0.1c-0.1,0-0.2,0-0.5,0.1v0c-0.1,0-0.2,0-0.3,0.1c0.1,0.1,0.1,0.2,0.2,0.3
			C101,123.5,101,123.5,101.1,123.5z M100.9,119.8c0,0.1-0.1,0.1-0.1,0.2s-0.1,0.1-0.1,0.1s0,0,0,0.1c0,0.1,0.1,0.1,0.1,0.2
			c0.1,0.1,0.1,0.1,0.3,0.3c0,0,0.1,0,0.2,0c0-0.1,0-0.1,0-0.1c0-0.1,0-0.1-0.1-0.2c0-0.1-0.1-0.2-0.1-0.3c0-0.1,0-0.2,0-0.2
			L100.9,119.8z M100.9,121.6c0.2-0.1,0.3-0.1,0.3-0.1c0,0-0.1-0.1-0.2-0.1c-0.1-0.1-0.1-0.1-0.2-0.1l-0.1,0.3L100.9,121.6z
			 M100.8,124.8C100.8,124.8,100.8,124.8,100.8,124.8L100.8,124.8L100.8,124.8z M100.9,125.2c0.1,0,0.2,0,0.3,0c0.1,0,0.1,0,0.2,0
			c0,0,0.1,0,0.1,0c0,0,0,0,0,0c0,0,0,0,0-0.1c0,0,0-0.1,0-0.1c-0.1,0-0.2,0-0.2,0c0,0-0.1,0-0.1,0c-0.1,0-0.2-0.1-0.3-0.2
			C100.8,125.1,100.8,125.2,100.9,125.2z M101.1,122.6c0,0,0-0.1,0.1-0.1c0.1,0,0-0.1,0-0.2l-0.1-0.1l-0.2,0.2L101.1,122.6z
			 M101.3,118.1c0,0,0,0.1,0,0.1L101.3,118.1C101.3,118.1,101.3,118.1,101.3,118.1z M101.5,120C101.4,120.1,101.4,120.1,101.5,120
			c-0.1,0.2-0.1,0.3,0,0.3c0,0,0,0,0.1,0c0,0,0,0,0.1,0.1c0,0,0,0,0.1,0.1c0,0,0,0,0-0.1c0,0,0-0.1,0-0.1
			C101.6,120.2,101.6,120.1,101.5,120C101.5,120,101.5,120,101.5,120z M101.9,122.7c0,0.2,0.1,0.3,0.2,0.3s0.3-0.1,0.2-0.2
			c0,0-0.1-0.1-0.2-0.3c0,0-0.1,0.1-0.1,0.1C102,122.6,102,122.6,101.9,122.7z M102,124.1c0.1,0,0.1,0,0.2,0
			C102.1,124.1,102.1,124.1,102,124.1C102,124.1,102,124.1,102,124.1z M102.7,126C102.7,126,102.7,126,102.7,126
			c0.1,0,0.1,0,0.1-0.1c0-0.1-0.1-0.2-0.1-0.2c-0.2-0.1-0.4-0.3-0.3-0.5l-0.1-0.2c-0.1,0.1-0.1,0.1-0.1,0.1c0,0,0,0.1,0,0.3
			c0,0,0,0,0,0.1c0,0,0,0,0,0.1s0,0,0.1,0.1c0,0,0.1,0.1,0.1,0.1C102.5,125.8,102.6,125.9,102.7,126z M102.3,118.9c0,0-0.1,0-0.1,0
			C102.2,118.9,102.2,118.9,102.3,118.9z M102.9,124.9l0.1-0.2c0,0,0,0,0-0.1c0,0,0,0,0,0c0,0,0,0-0.1,0c0,0-0.1,0-0.1,0
			c-0.1,0-0.1,0-0.3,0c0,0-0.1,0-0.1,0.1c0,0,0,0.1,0,0.1C102.6,124.9,102.8,124.9,102.9,124.9z M103.1,124.4L103.1,124.4
			L103.1,124.4C103.1,124.4,103.1,124.4,103.1,124.4L103.1,124.4z M103.7,122c1.2,0,2.1-0.5,2.7-1.2c0.4-0.6,0.5-1.1,0.2-1.5
			c-0.1-0.1-0.2-0.2-0.3-0.2c-0.6-0.3-1.3-0.1-1.9,0.3s-1,1.2-1,2.2c0,0.2,0,0.3,0.1,0.3C103.4,122,103.5,122,103.7,122z
			 M103.8,125.5c0.1,0,0.1-0.1,0.2-0.2l-0.2-0.3c-0.1,0.2-0.2,0.3-0.2,0.3C103.7,125.5,103.7,125.5,103.8,125.5z M104.8,127
			c0.1,0,0.1,0,0.1,0C104.9,127,104.9,127,104.8,127z"/>
		<path class="st18" d="M123.3,122.2c0.3,0.2,0.6,0.4,0.9,0.6c0.4,0.2,0.5,0.4,0.4,0.5c-0.7,1.1-1.1,1.6-1.1,1.7
			c-0.5,0.6-1.2,1.2-2,1.7c-0.8,0.5-1.7,0.9-2.5,1.1c-0.9,0.3-1.8,0.4-2.7,0.3c-0.9,0-1.7-0.2-2.5-0.5c-0.7-0.3-1.4-0.8-1.9-1.6
			c-0.5-0.7-0.8-1.6-0.9-2.7c0-0.1,0-0.2,0-0.3c-0.1-0.5-0.1-1.1,0-1.8c0.1-0.7,0.3-1.5,0.6-2.3c0.4-1.1,1-2,1.8-2.7
			c0.8-0.7,1.6-1.1,2.4-1.3s1.6-0.2,2.5-0.1c0.8,0.2,1.5,0.5,2.1,1c0.8,0.7,1.3,1.7,1.5,2.8c0.1,1.1-0.2,2.2-1,3.3
			c-0.4,0.5-1,0.9-1.6,1.2c-0.6,0.3-1.2,0.5-1.7,0.6c-0.5,0.1-0.8,0.2-0.8,0.2c0.1,0.1,0.1,0.2,0.1,0.2c1,0.7,2.1,0.9,3.2,0.6
			c0.5-0.1,0.9-0.3,1.3-0.5c0.4-0.2,0.7-0.5,0.9-0.7c0.2-0.2,0.4-0.5,0.5-0.7c0.1-0.2,0.3-0.4,0.4-0.5
			C123.1,122.2,123.2,122.2,123.3,122.2z M111.9,123.4C111.9,123.4,111.9,123.4,111.9,123.4L111.9,123.4
			C111.9,123.4,111.9,123.4,111.9,123.4z M112.5,121.7l0.2,0.1l0.2-0.1c-0.1-0.1-0.1-0.1-0.2-0.2
			C112.6,121.7,112.6,121.7,112.5,121.7z M113.3,123.5c0.3-0.1,0.6-0.3,0.7-0.4c-0.1-0.1-0.2-0.1-0.3-0.1c-0.1,0-0.2,0-0.5,0.1v0
			c-0.1,0-0.2,0-0.3,0.1c0.1,0.1,0.1,0.2,0.2,0.3C113.2,123.5,113.2,123.5,113.3,123.5z M113.1,119.8c0,0.1-0.1,0.1-0.1,0.2
			s-0.1,0.1-0.1,0.1s0,0,0,0.1c0,0.1,0.1,0.1,0.1,0.2c0.1,0.1,0.1,0.1,0.3,0.3c0,0,0.1,0,0.2,0c0-0.1,0-0.1,0-0.1
			c0-0.1,0-0.1-0.1-0.2c0-0.1-0.1-0.2-0.1-0.3c0-0.1,0-0.2,0-0.2L113.1,119.8z M113.1,121.6c0.2-0.1,0.3-0.1,0.3-0.1
			c0,0-0.1-0.1-0.2-0.1c-0.1-0.1-0.1-0.1-0.2-0.1l-0.1,0.3L113.1,121.6z M113,124.8C113,124.8,113,124.8,113,124.8L113,124.8
			L113,124.8z M113.1,125.2c0.1,0,0.2,0,0.3,0c0.1,0,0.1,0,0.2,0c0,0,0.1,0,0.1,0c0,0,0,0,0,0c0,0,0,0,0-0.1c0,0,0-0.1,0-0.1
			c-0.1,0-0.2,0-0.2,0c0,0-0.1,0-0.1,0c-0.1,0-0.2-0.1-0.3-0.2C113,125.1,113,125.2,113.1,125.2z M113.3,122.6c0,0,0-0.1,0.1-0.1
			c0.1,0,0-0.1,0-0.2l-0.1-0.1l-0.2,0.2L113.3,122.6z M113.5,118.1c0,0,0,0.1,0,0.1L113.5,118.1
			C113.5,118.1,113.5,118.1,113.5,118.1z M113.7,120C113.6,120.1,113.6,120.1,113.7,120c-0.1,0.2-0.1,0.3,0,0.3c0,0,0,0,0.1,0
			c0,0,0,0,0.1,0.1c0,0,0,0,0.1,0.1c0,0,0,0,0-0.1c0,0,0-0.1,0-0.1C113.8,120.2,113.8,120.1,113.7,120
			C113.7,120,113.7,120,113.7,120z M114.1,122.7c0,0.2,0.1,0.3,0.2,0.3s0.3-0.1,0.2-0.2c0,0-0.1-0.1-0.2-0.3c0,0-0.1,0.1-0.1,0.1
			C114.2,122.6,114.2,122.6,114.1,122.7z M114.2,124.1c0.1,0,0.1,0,0.2,0C114.3,124.1,114.3,124.1,114.2,124.1
			C114.2,124.1,114.2,124.1,114.2,124.1z M114.9,126C114.9,126,114.9,126,114.9,126c0.1,0,0.1,0,0.1-0.1c0-0.1-0.1-0.2-0.1-0.2
			c-0.2-0.1-0.4-0.3-0.3-0.5l-0.1-0.2c-0.1,0.1-0.1,0.1-0.1,0.1c0,0,0,0.1,0,0.3c0,0,0,0,0,0.1c0,0,0,0,0,0.1s0,0,0.1,0.1
			c0,0,0.1,0.1,0.1,0.1C114.7,125.8,114.8,125.9,114.9,126z M114.5,118.9c0,0-0.1,0-0.1,0C114.4,118.9,114.4,118.9,114.5,118.9z
			 M115.1,124.9l0.1-0.2c0,0,0,0,0-0.1c0,0,0,0,0,0c0,0,0,0-0.1,0c0,0-0.1,0-0.1,0c-0.1,0-0.1,0-0.3,0c0,0-0.1,0-0.1,0.1
			c0,0,0,0.1,0,0.1C114.8,124.9,115,124.9,115.1,124.9z M115.3,124.4L115.3,124.4L115.3,124.4C115.3,124.4,115.3,124.4,115.3,124.4
			L115.3,124.4z M115.9,122c1.2,0,2.1-0.5,2.7-1.2c0.4-0.6,0.5-1.1,0.2-1.5c-0.1-0.1-0.2-0.2-0.3-0.2c-0.6-0.3-1.3-0.1-1.9,0.3
			s-1,1.2-1,2.2c0,0.2,0,0.3,0.1,0.3C115.6,122,115.7,122,115.9,122z M116,125.5c0.1,0,0.1-0.1,0.2-0.2l-0.2-0.3
			c-0.1,0.2-0.2,0.3-0.2,0.3C115.9,125.5,115.9,125.5,116,125.5z M117,127c0.1,0,0.1,0,0.1,0C117.1,127,117.1,127,117,127z"/>
		<path class="st18" d="M138.7,122.2c0.2,0.1,0.5,0.3,0.8,0.5c0.4,0.3,0.6,0.5,0.5,0.6c-0.4,0.9-1,1.7-1.8,2.4
			c-0.8,0.7-1.6,1.3-2.5,1.7c-0.8,0.4-1.7,0.5-2.5,0.4c-0.8-0.1-1.4-0.5-1.8-1.1c-0.1-0.1-0.1-0.2-0.2-0.2c0,0-0.1,0-0.2,0.1
			c-0.7,0.7-1.5,1.1-2.4,1.3c-0.9,0.2-1.7,0.1-2.5-0.1c-0.8-0.3-1.4-0.8-2-1.6s-0.9-1.7-1-2.8c0,0,0-0.4-0.1-1.1
			c0-1.1,0.2-2.1,0.5-3.1s0.9-1.9,1.6-2.6s1.6-1.3,2.6-1.5c0.4-0.1,0.8-0.2,1.2-0.2c0.4,0,0.7,0,1,0c0.3,0,0.5,0.1,0.7,0.2
			c0.2,0.1,0.4,0.1,0.5,0.2c0.1,0.1,0.2,0.1,0.3,0.2c0.1,0,0.2,0.1,0.2,0c0.1,0,0.1-0.1,0.1-0.2c0.7-3.8,1-5.7,1-5.9
			c0-0.2,0-0.3,0.1-0.3c0,0,0.1-0.1,0.3-0.1c2.8,0,4.1,0,4.2,0v0c0.1,0.1,0.1,0.3,0,0.6c0,0.3-0.2,1.2-0.6,2.8
			c-0.2,1.1-0.4,1.9-0.5,2.7c-0.2,1-0.4,1.8-0.5,2.4c-0.1,0.7-0.2,1.1-0.2,1.3c0,0.2-0.1,0.4-0.1,0.5c0,0.1-0.1,0.3-0.1,0.5
			c0,0.1-0.1,0.3-0.1,0.5c0,0.2,0,0.4-0.1,0.5c0,0.1-0.1,0.4-0.1,1.1c-0.1,0.4-0.1,0.8-0.1,1.2s0.1,0.7,0.2,1.1
			c0.1,0.2,0.2,0.3,0.3,0.3c0.1,0,0.3,0,0.5-0.1c0.2-0.1,0.3-0.2,0.5-0.3c0.2-0.1,0.3-0.2,0.5-0.4c0.4-0.4,0.7-0.8,1-1.2
			c0.1-0.1,0.2-0.2,0.2-0.2C138.6,122.2,138.7,122.2,138.7,122.2z M124.9,122.1c0,0,0.1-0.2,0.3-0.4c-0.2-0.1-0.2-0.2-0.3-0.2
			c-0.1,0.2-0.2,0.4-0.2,0.5L124.9,122.1z M124.8,122.6l0.1,0.1l0.1-0.1C124.9,122.6,124.8,122.6,124.8,122.6z M125.8,120.3l0.1-0.1
			c-0.2-0.2-0.3-0.2-0.4-0.3c0,0,0,0,0,0.1C125.6,120.1,125.7,120.2,125.8,120.3z M125.6,126.3c0.1,0,0.1,0,0.1,0
			C125.7,126.3,125.6,126.3,125.6,126.3z M125.7,123.6l0.1,0.1l0.1-0.1c0,0,0,0,0-0.1C125.9,123.6,125.8,123.6,125.7,123.6
			C125.8,123.6,125.8,123.6,125.7,123.6z M126.3,124.5c0,0,0.1-0.1,0.3-0.2c0,0-0.1-0.1-0.1-0.1c0,0-0.1,0.1-0.3,0.2
			C126.2,124.4,126.2,124.5,126.3,124.5z M126.8,125.1C126.9,125,126.9,125,126.8,125.1c0.1-0.1,0-0.2-0.1-0.3l-0.1,0.1L126.8,125.1
			z M126.8,117.4C126.8,117.4,126.8,117.3,126.8,117.4C126.9,117.3,126.9,117.3,126.8,117.4l0-0.1
			C126.8,117.3,126.8,117.3,126.8,117.4z M126.9,119.5C126.9,119.5,126.9,119.5,126.9,119.5C126.9,119.5,126.9,119.5,126.9,119.5z
			 M131.4,119.3c0.1-0.2,0-0.4-0.1-0.6c-0.2-0.3-0.5-0.5-0.9-0.6c-0.4-0.1-0.8,0-1.2,0.2c-0.4,0.2-0.8,0.6-1.1,1.2
			c-0.2,0.3-0.3,1-0.5,1.9c-0.1,0.5,0,1.2,0.2,2c0.2,0.5,0.4,0.9,0.8,1.1c0.4,0.2,0.8,0.2,1.1,0s0.7-0.4,0.9-0.7
			c0.3-0.3,0.4-0.6,0.3-1c0,0,0-0.3,0.1-0.9c0.1-0.6,0.1-1.1,0.2-1.7S131.4,119.4,131.4,119.3z M127.8,117.5
			C127.7,117.5,127.7,117.5,127.8,117.5c-0.1,0-0.1,0.1-0.2,0.1c0,0,0,0,0.1,0C127.7,117.7,127.8,117.6,127.8,117.5
			C127.8,117.6,127.8,117.6,127.8,117.5z M128.1,117.5l-0.2-0.1l-0.1,0.1C127.9,117.5,128,117.5,128.1,117.5z M131.8,117.6
			L131.8,117.6l-0.1,0l0,0.1C131.7,117.7,131.8,117.7,131.8,117.6z M132.6,116.9c0,0-0.1,0-0.3,0.1l0.3,0.1c0.1,0,0.2,0,0.2-0.1
			C132.7,117,132.7,116.9,132.6,116.9z M132.3,117.8c0,0.1,0.1,0.1,0.1,0.3c0.1-0.1,0.1-0.1,0.1-0.1c0,0-0.1-0.1-0.2-0.3
			L132.3,117.8z M132.5,120.8c0,0,0.1,0.2,0.2,0.4c0,0,0.1-0.1,0.2-0.1c0.1-0.1,0.1-0.1,0.2-0.1c-0.2-0.2-0.3-0.2-0.3-0.3
			C132.6,120.6,132.6,120.7,132.5,120.8C132.5,120.7,132.5,120.8,132.5,120.8z M132.7,122.5c0,0,0,0.1,0.1,0.1
			c0.1,0.1,0.1,0.1,0.2,0.1c0.1,0,0.1,0,0.2,0c-0.2-0.2-0.3-0.2-0.4-0.2C132.8,122.4,132.8,122.4,132.7,122.5z M133.2,115.8
			c-0.1-0.1-0.2-0.2-0.3-0.2c-0.1,0-0.1,0-0.1,0.1c0,0.1,0.1,0.1,0.1,0.2c0.1,0,0.1,0.1,0.2,0.1s0.1,0,0.2,0.1c0,0,0,0,0.1,0
			s0.1,0,0.1,0l0-0.1C133.4,115.9,133.3,115.9,133.2,115.8z M133,116.6c-0.1,0-0.1,0-0.2,0c0,0,0,0,0.1,0
			C132.9,116.6,132.9,116.6,133,116.6C132.9,116.6,133,116.6,133,116.6z M132.9,123.6L132.9,123.6
			C132.9,123.6,132.9,123.6,132.9,123.6C132.9,123.6,132.9,123.6,132.9,123.6z M133.2,121c0,0.1,0,0.1,0,0.1c0,0,0,0.1,0.1,0.2
			c0-0.1,0.1-0.1,0.1-0.1C133.3,121.2,133.2,121.1,133.2,121z M133.4,118.7c0.3,0.1,0.5,0.1,0.7,0.1c-0.1-0.1-0.1-0.1-0.1-0.1
			c0,0-0.1-0.2-0.3-0.5l0.1,0c-0.1-0.3-0.1-0.5-0.1-0.5s0,0-0.1-0.1l-0.1,0.1c0.1,0.2,0,0.4-0.2,0.6c-0.1,0-0.1,0.1-0.1,0.3
			C133.2,118.6,133.3,118.6,133.4,118.7z M133.3,123.3c0.1,0.1,0.2,0.1,0.2,0.1c0,0,0,0,0.1-0.1c-0.1,0-0.1-0.1-0.2-0.1
			C133.3,123.2,133.3,123.2,133.3,123.3L133.3,123.3z M133.4,125.4c0-0.1,0-0.1,0-0.2c0,0,0-0.1-0.1-0.1c0,0,0-0.1-0.1-0.1
			c0,0.1-0.1,0.1-0.1,0.1C133.3,125.1,133.3,125.2,133.4,125.4z M133.4,120c0,0,0.1-0.1,0.1-0.1c0.1,0,0.1-0.1,0-0.2
			c0-0.1,0-0.1-0.1-0.1c0,0-0.1,0-0.1,0.1c0,0,0,0-0.1,0.1C133.3,119.8,133.3,119.9,133.4,120L133.4,120z M133.7,116.3L133.7,116.3
			c0,0.2,0,0.3,0.1,0.3c0.1,0.1,0.2,0.1,0.3,0c0,0,0.1-0.1,0.1-0.2c0,0,0,0-0.1-0.1c0,0.1-0.1,0.1-0.2,0
			C133.8,116.3,133.7,116.3,133.7,116.3z M134.3,117.3l-0.1-0.1l-0.2,0.1l0.1,0.1L134.3,117.3z M134,121.3
			C134,121.3,134,121.3,134,121.3L134,121.3L134,121.3C134,121.3,134,121.3,134,121.3z M134,125.5c0.1,0.1,0.2,0.1,0.2,0.1
			c0,0,0,0,0.1-0.1c-0.1-0.1-0.1-0.1-0.1-0.1S134,125.5,134,125.5z M134.2,113C134.2,113.1,134.2,113.1,134.2,113
			c-0.1,0.1,0,0.1,0,0.1C134.3,113.1,134.3,113.1,134.2,113z M134.2,124.6L134.2,124.6c0.1,0,0.1,0,0.1,0c0,0,0,0,0.1,0
			c-0.1-0.1-0.1-0.1-0.1-0.1C134.2,124.5,134.2,124.6,134.2,124.6z M134.2,116.2C134.3,116.2,134.3,116.2,134.2,116.2L134.2,116.2
			l0-0.1C134.3,116.1,134.2,116.1,134.2,116.2z M134.8,117.9L134.8,117.9C134.8,117.9,134.8,117.9,134.8,117.9z M135,114.8
			C135,114.7,135,114.7,135,114.8c0.1-0.1,0.1-0.1,0.1-0.2c0,0,0-0.1-0.1-0.1c0,0,0,0.1-0.1,0.1C135,114.6,135,114.7,135,114.8
			C135,114.7,135,114.7,135,114.8z M135.3,118.9C135.3,118.9,135.3,118.9,135.3,118.9c0.1,0,0.1,0,0.1,0L135.3,118.9
			C135.3,118.9,135.3,118.9,135.3,118.9z M135.8,112.6c-0.1,0.1-0.1,0.1-0.1,0.1s0.1,0.1,0.2,0.3c0-0.1,0.1-0.1,0.1-0.1
			c0,0-0.1-0.1-0.1-0.1C135.8,112.7,135.8,112.7,135.8,112.6z M136.8,109.3C136.8,109.3,136.8,109.3,136.8,109.3
			c0,0.1-0.1,0.1-0.1,0.1c0,0,0,0,0,0s0,0,0,0C136.8,109.4,136.8,109.3,136.8,109.3z"/>
		<path class="st18" d="M147.6,123.1c0.1,0.1,0.1,0.2,0.1,0.3c0,0-0.2,0.3-0.4,0.7c-0.3,0.4-0.5,0.8-0.6,0.9s-0.4,0.5-0.8,0.8
			c-0.4,0.4-0.8,0.7-1.3,1c-0.8,0.5-1.5,0.9-2.3,1s-1.4,0.1-1.9-0.1c-0.5-0.2-0.9-0.5-1.2-0.9c-0.3-0.4-0.5-0.9-0.5-1.4
			c0-0.7,0-1.4-0.1-1.8c0-0.5,0-1.1,0.1-1.9c0.1-0.8,0.2-1.5,0.2-2c0.1-0.5,0.1-1.1,0.3-1.9c0.1-0.8,0.2-1.4,0.3-1.8
			c0.1-0.4,0.2-0.9,0.3-1.6c0.1-0.6,0.2-1.1,0.2-1.3c0.1-0.7,0.3-1.6,0.4-2.5c0.1-0.9,0.2-1.4,0.3-1.5c0.1-0.1,0.2-0.2,0.5-0.2
			c0.1,0,0.3,0,0.3,0c0.2,0,0.7,0,1.7,0s1.6,0,1.9,0c0.1,0,0.2,0,0.2,0c0,0,0,0.1,0,0.2c-0.3,1.2-0.6,2.7-0.9,4.3s-0.7,3.6-1.1,5.9
			c-0.4,2.3-0.5,3.7-0.3,4.3c0.1,0.4,0.3,0.6,0.5,0.7s0.5,0,0.7-0.1c0.3-0.2,0.5-0.4,0.8-0.6c0.3-0.3,0.5-0.6,0.8-0.9
			c0.1-0.1,0.2-0.2,0.2-0.2c0,0,0.1-0.1,0.1-0.1c0,0,0.1,0,0.2,0c0.1,0.1,0.2,0.1,0.2,0.2c0.1,0.1,0.2,0.1,0.4,0.3
			C147.2,122.8,147.4,122.9,147.6,123.1z M140.4,121.5c0,0-0.1,0.1-0.2,0.2c-0.1,0.1-0.1,0.2-0.1,0.3c0.1,0.4,0.2,0.6,0.2,0.7
			c0-0.1,0.1-0.3,0.2-0.7c0,0,0-0.1,0.1-0.3C140.5,121.6,140.4,121.5,140.4,121.5z M140.5,120.3
			C140.4,120.3,140.4,120.2,140.5,120.3c-0.1-0.1-0.1-0.1-0.2,0c0,0-0.1,0-0.1,0.1c0.1,0,0.1,0,0.2,0.1
			C140.3,120.3,140.4,120.3,140.5,120.3L140.5,120.3z M140.9,125.1L140.9,125.1c0.1-0.3,0-0.4-0.1-0.4c-0.1,0-0.3,0-0.5,0l-0.1,0
			l0.1,0.1C140.6,124.8,140.8,124.8,140.9,125.1L140.9,125.1z M141.4,120.2c-0.2-0.2-0.3-0.3-0.4-0.3s0,0-0.1,0c0,0,0,0.1,0.1,0.1
			c0,0,0,0.1,0.1,0.1c0,0,0,0,0.1,0.1c0,0,0,0,0.1,0c0,0,0,0,0.1,0L141.4,120.2z M141.1,126.4C141.1,126.4,141.1,126.4,141.1,126.4
			c0.1,0,0.2-0.1,0.2-0.1c-0.1-0.1-0.2-0.1-0.3,0L141.1,126.4z M141.1,114.4C141.1,114.4,141.1,114.4,141.1,114.4l0-0.1
			C141.1,114.3,141.1,114.4,141.1,114.4z M141.3,123.8c0-0.1,0-0.1-0.1-0.2c-0.1,0.1-0.1,0.1-0.1,0.1S141.3,123.7,141.3,123.8z
			 M141.5,125.8c0.1,0,0.2-0.1,0.2-0.1c0,0-0.1,0-0.1-0.1c-0.1-0.1-0.2-0.1-0.3,0c-0.1,0-0.1,0.1-0.1,0.1
			C141.3,125.7,141.4,125.7,141.5,125.8C141.5,125.7,141.5,125.8,141.5,125.8z M141.7,124.5c0.1-0.1,0.2-0.1,0.3-0.2
			c0,0-0.1-0.1-0.1-0.1s-0.1,0.1-0.4,0.2C141.6,124.4,141.7,124.5,141.7,124.5z M141.8,121.2C141.7,121.1,141.7,121.1,141.8,121.2
			C141.7,121.2,141.7,121.2,141.8,121.2L141.8,121.2z M142.2,117.4c0.1,0,0.1,0,0.2-0.1c-0.1-0.1-0.2-0.1-0.2,0L142.2,117.4z
			 M142.2,124.9l0.2,0.1l0.1-0.1C142.3,124.9,142.3,124.9,142.2,124.9C142.3,124.8,142.2,124.9,142.2,124.9z M142.5,114.3
			c0.1-0.2,0.2-0.3,0.2-0.3s0-0.1-0.1-0.1c-0.1,0-0.1,0-0.1,0.1c0,0-0.1,0.1-0.1,0.1c0,0-0.1,0-0.1,0.1c0,0,0.1,0.1,0.1,0.1
			C142.5,114.2,142.5,114.3,142.5,114.3z M142.4,119.5L142.4,119.5L142.4,119.5C142.4,119.5,142.4,119.5,142.4,119.5L142.4,119.5z
			 M142.8,111.4c0.1-0.1,0.1-0.2,0.1-0.3l-0.1,0.1L142.8,111.4z M143.2,111.9c-0.1,0-0.1,0-0.1,0L143.2,111.9L143.2,111.9z"/>
		<path class="st18" d="M158.5,122.2c0.3,0.2,0.6,0.4,0.9,0.6c0.4,0.2,0.5,0.4,0.4,0.5c-0.7,1.1-1.1,1.6-1.1,1.7
			c-0.5,0.6-1.2,1.2-2,1.7s-1.7,0.9-2.5,1.1c-0.9,0.3-1.8,0.4-2.7,0.3c-0.9,0-1.7-0.2-2.5-0.5c-0.7-0.3-1.4-0.8-1.9-1.6
			c-0.5-0.7-0.8-1.6-0.9-2.7c0-0.1,0-0.2,0-0.3c-0.1-0.5-0.1-1.1,0-1.8c0.1-0.7,0.3-1.5,0.6-2.3c0.4-1.1,1-2,1.8-2.7
			c0.8-0.7,1.6-1.1,2.4-1.3s1.6-0.2,2.5-0.1c0.8,0.2,1.5,0.5,2.1,1c0.8,0.7,1.3,1.7,1.5,2.8c0.1,1.1-0.2,2.2-1,3.3
			c-0.4,0.5-1,0.9-1.6,1.2c-0.6,0.3-1.2,0.5-1.7,0.6c-0.5,0.1-0.8,0.2-0.8,0.2c0.1,0.1,0.1,0.2,0.1,0.2c1,0.7,2.1,0.9,3.2,0.6
			c0.5-0.1,0.9-0.3,1.3-0.5c0.4-0.2,0.7-0.5,0.9-0.7c0.2-0.2,0.4-0.5,0.5-0.7c0.1-0.2,0.3-0.4,0.4-0.5
			C158.3,122.2,158.4,122.2,158.5,122.2z M147.1,123.4C147.1,123.4,147.1,123.4,147.1,123.4L147.1,123.4
			C147,123.4,147,123.4,147.1,123.4z M147.7,121.7l0.2,0.1l0.2-0.1c-0.1-0.1-0.1-0.1-0.2-0.2C147.8,121.7,147.7,121.7,147.7,121.7z
			 M148.4,123.5c0.3-0.1,0.6-0.3,0.7-0.4c-0.1-0.1-0.2-0.1-0.3-0.1c-0.1,0-0.2,0-0.5,0.1v0c-0.1,0-0.2,0-0.3,0.1
			c0.1,0.1,0.1,0.2,0.2,0.3C148.3,123.5,148.4,123.5,148.4,123.5z M148.3,119.8c0,0.1-0.1,0.1-0.1,0.2s-0.1,0.1-0.1,0.1
			c0,0,0,0,0,0.1s0.1,0.1,0.1,0.2c0.1,0.1,0.1,0.1,0.3,0.3c0,0,0.1,0,0.2,0c0-0.1,0-0.1,0-0.1c0-0.1,0-0.1-0.1-0.2
			c0-0.1-0.1-0.2-0.1-0.3c0-0.1,0-0.2,0-0.2L148.3,119.8z M148.3,121.6c0.2-0.1,0.3-0.1,0.3-0.1c0,0-0.1-0.1-0.2-0.1
			c-0.1-0.1-0.1-0.1-0.2-0.1l-0.1,0.3L148.3,121.6z M148.2,124.8C148.2,124.8,148.2,124.8,148.2,124.8L148.2,124.8L148.2,124.8z
			 M148.2,125.2c0.1,0,0.2,0,0.3,0s0.1,0,0.2,0s0.1,0,0.1,0c0,0,0,0,0,0c0,0,0,0,0-0.1c0,0,0-0.1,0-0.1c-0.1,0-0.2,0-0.2,0
			c0,0-0.1,0-0.1,0s-0.2-0.1-0.3-0.2C148.2,125.1,148.2,125.2,148.2,125.2z M148.5,122.6c0,0,0-0.1,0.1-0.1c0.1,0,0-0.1,0-0.2
			l-0.1-0.1l-0.2,0.2L148.5,122.6z M148.6,118.1c0,0,0,0.1,0,0.1L148.6,118.1C148.7,118.1,148.6,118.1,148.6,118.1z M148.8,120
			C148.8,120.1,148.8,120.1,148.8,120c-0.1,0.2-0.1,0.3,0,0.3c0,0,0,0,0.1,0s0,0,0.1,0.1c0,0,0,0,0.1,0.1c0,0,0,0,0-0.1
			c0,0,0-0.1,0-0.1C149,120.2,148.9,120.1,148.8,120C148.8,120,148.8,120,148.8,120z M149.3,122.7c0,0.2,0.1,0.3,0.2,0.3
			c0.2,0,0.2-0.1,0.2-0.2c0,0-0.1-0.1-0.2-0.3c0,0-0.1,0.1-0.1,0.1S149.3,122.6,149.3,122.7z M149.4,124.1c0.1,0,0.1,0,0.2,0
			C149.5,124.1,149.4,124.1,149.4,124.1C149.4,124.1,149.4,124.1,149.4,124.1z M150,126C150,126,150,126,150,126
			c0.1,0,0.1,0,0.1-0.1c0-0.1-0.1-0.2-0.1-0.2c-0.2-0.1-0.4-0.3-0.3-0.5l-0.1-0.2c-0.1,0.1-0.1,0.1-0.1,0.1s0,0.1,0,0.3
			c0,0,0,0,0,0.1s0,0,0,0.1s0,0,0.1,0.1s0.1,0.1,0.1,0.1C149.8,125.8,149.9,125.9,150,126z M149.6,118.9c0,0-0.1,0-0.1,0
			C149.5,118.9,149.6,118.9,149.6,118.9z M150.3,124.9l0.1-0.2c0,0,0,0,0-0.1c0,0,0,0,0,0s0,0-0.1,0c0,0-0.1,0-0.1,0
			c-0.1,0-0.1,0-0.3,0c0,0-0.1,0-0.1,0.1c0,0,0,0.1,0,0.1C150,124.9,150.1,124.9,150.3,124.9z M150.5,124.4L150.5,124.4L150.5,124.4
			C150.5,124.4,150.5,124.4,150.5,124.4L150.5,124.4z M151,122c1.2,0,2.1-0.5,2.7-1.2c0.4-0.6,0.5-1.1,0.2-1.5
			c-0.1-0.1-0.2-0.2-0.3-0.2c-0.6-0.3-1.3-0.1-1.9,0.3s-1,1.2-1,2.2c0,0.2,0,0.3,0.1,0.3C150.7,122,150.9,122,151,122z M151.1,125.5
			c0.1,0,0.1-0.1,0.2-0.2l-0.2-0.3c-0.1,0.2-0.2,0.3-0.2,0.3C151,125.5,151.1,125.5,151.1,125.5z M152.2,127c0.1,0,0.1,0,0.1,0
			C152.3,127,152.2,127,152.2,127z"/>
	</g>
</g>
</svg>
